<svg width="139" height="131" viewBox="0 0 139 131" fill="none" xmlns="http://www.w3.org/2000/svg">
<path d="M111.735 26.738L93.5034 36.6944C89.3235 38.9761 85.3417 41.5626 81.5928 44.4314L53.5791 65.8659C53.0617 66.2623 52.464 66.5552 51.8206 66.728C51.177 66.9009 50.5 66.9502 49.8282 66.8733C49.1564 66.7963 48.5032 66.5947 47.9054 66.2796C47.3078 65.9647 46.7777 65.5428 46.3453 65.0376L43.0685 61.2105C40.4658 58.1724 36.7329 56.2057 32.6908 55.7429C28.6487 55.28 24.6285 56.359 21.5145 58.7425L12.6568 65.5199C11.114 66.7 9.83995 68.1652 8.90771 69.8316C7.97546 71.498 7.40314 73.333 7.22334 75.2321C7.04368 77.1309 7.26013 79.0566 7.86022 80.8989C8.46048 82.7412 9.43271 84.4642 10.7214 85.9694C12.0102 87.4746 13.5902 88.7326 15.3712 89.6716C17.1525 90.6105 19.0996 91.2121 21.1019 91.4417C23.104 91.6714 25.122 91.5248 27.0404 91.0103C28.959 90.4959 30.7405 89.6234 32.2833 88.443L72.7402 57.4876L79.5684 58.5455L88.0928 52.0232C91.8393 49.1563 95.3426 46.0156 98.5722 42.6284L112.672 27.8464C112.79 27.7233 112.856 27.5629 112.859 27.3944C112.862 27.2257 112.802 27.0596 112.689 26.926C112.576 26.7926 112.418 26.7002 112.243 26.6658C112.068 26.6313 111.888 26.6568 111.735 26.738ZM29.3844 84.3783C28.3322 85.1834 27.1172 85.7785 25.8087 86.1294C24.5002 86.4804 23.1239 86.5802 21.7582 86.4236C20.3927 86.267 19.0646 85.8567 17.8498 85.2163C16.6351 84.5759 15.5574 83.7179 14.6784 82.6912C12.906 80.6176 12.05 77.9843 12.2984 75.3701C12.547 72.7558 13.8795 70.3746 16.0033 68.7496L24.351 62.3623C25.4024 61.5556 26.617 60.9589 27.9254 60.6063C29.2338 60.2537 30.6104 60.1522 31.9765 60.3074C33.3426 60.4627 34.6715 60.8717 35.8871 61.5113C37.1029 62.1507 38.1817 63.0081 39.0619 64.0343C39.9417 65.0618 40.6053 66.2381 41.0146 67.4958C41.424 68.7537 41.571 70.0683 41.4477 71.3646C41.3241 72.6609 40.9323 73.9133 40.2948 75.0504C39.6574 76.1875 38.7865 77.1866 37.7322 77.9911L29.3844 84.3783Z" fill="white" stroke="#074566" stroke-linecap="round" stroke-linejoin="round"/>
<path d="M67.8172 91.5904L64.5404 87.7632C63.667 86.7431 63.2448 85.4469 63.3665 84.1601C63.4882 82.873 64.1439 81.7006 65.1895 80.9006L93.2031 59.4661C96.9473 56.6013 101.073 54.1818 104.302 50.7952L118.56 34.6772C118.669 34.5526 118.728 34.3947 118.727 34.2301C118.725 34.0657 118.664 33.9049 118.553 33.7756C118.442 33.6462 118.289 33.5559 118.119 33.5204C117.949 33.4851 117.773 33.5065 117.622 33.5812L97.8929 43.3126C93.7175 45.5946 90.4491 49.0081 86.7012 51.8758L78.1699 58.4035L77.8415 64.9375L37.3937 95.886C34.278 98.2699 32.3237 101.764 31.9611 105.599C31.7816 107.498 31.998 109.424 32.5985 111.266C33.1986 113.109 34.1709 114.832 35.4597 116.337C38.0626 119.377 41.7966 121.345 45.8402 121.81C49.8838 122.273 53.9059 121.195 57.0215 118.811L65.8792 112.033C68.9936 109.65 70.9473 106.158 71.3107 102.325C71.674 98.4911 70.4175 94.6302 67.8172 91.5904ZM54.3879 115.056C52.2629 116.682 49.5196 117.417 46.7618 117.101C44.0038 116.785 41.457 115.442 39.6818 113.369C37.9066 111.295 37.0482 108.661 37.2957 106.045C37.5429 103.429 38.8757 101.046 41.0008 99.4201L49.3485 93.0328C50.4005 92.2256 51.6158 91.6285 52.9251 91.2761C54.2344 90.9237 55.6116 90.8225 56.9785 90.9783C58.3455 91.1344 59.6748 91.5442 60.8909 92.1849C62.107 92.8255 63.1857 93.6841 64.0655 94.7116C64.9453 95.7391 65.6087 96.9154 66.0181 98.1733C66.4274 99.431 66.5746 100.746 66.451 102.042C66.3274 103.338 65.9359 104.591 65.2984 105.728C64.6608 106.865 63.79 107.864 62.7357 108.669L54.3879 115.056Z" fill="white" stroke="#074566" stroke-linecap="round" stroke-linejoin="round"/>
</svg>
