<svg width="98" height="116" viewBox="0 0 98 116" fill="none" xmlns="http://www.w3.org/2000/svg">
<path d="M16.9695 62V68.5713V72.7435V87" stroke="#074566" stroke-width="1.15785" stroke-linecap="round" stroke-linejoin="round"/>
<path d="M19.3715 64.3221H29.0047C29.2875 64.3221 29.5617 64.2288 29.7804 64.0581C29.9991 63.8874 30.1488 63.6499 30.2041 63.3859C30.4957 62.0183 30.9378 59.4431 30.6139 57.6476C29.7421 52.8017 26.7726 47.3597 26.6468 42.7153C26.5434 38.8732 29.4867 34.7751 30.822 31.9095C32.1572 29.0439 34.2622 23.5604 33.3281 22.5341C31.8969 20.9651 26.6468 20.3097 24.3088 18.5617C22.7618 17.4062 22.2388 15.3453 22.0668 14.0831C22.0229 13.782 21.8655 13.5063 21.6241 13.3071C21.3827 13.1079 21.0736 12.9988 20.754 13H14.028C13.7084 12.9988 13.3993 13.1079 13.1578 13.3071C12.9164 13.5063 12.7591 13.782 12.7151 14.0831C12.5383 15.3453 12.0139 17.4014 10.4731 18.5617C8.12021 20.3061 2.83774 21.0208 1.43897 22.5294C0.496072 23.5486 2.60856 29.0475 3.94506 31.9048C5.28156 34.7621 8.22359 38.8684 8.12021 42.7106C7.99565 47.3585 5.02994 52.8005 4.15307 57.6429C3.82797 59.4383 4.27762 62.0136 4.56162 63.3812C4.61741 63.6451 4.76746 63.8826 4.98633 64.0532C5.20519 64.2239 5.47937 64.3172 5.76235 64.3174H19.3715V64.3221Z" fill="white" stroke="#074566" stroke-width="1.15785" stroke-linecap="round" stroke-linejoin="round"/>
<path d="M13 69C13 70.1046 12.1046 71 11 71C9.89543 71 9 70.1046 9 69C9 67.8954 9.89543 67 11 67C12.1046 67 13 67.8954 13 69Z" fill="#074566"/>
<path d="M13 69C13 70.1046 12.1046 71 11 71C9.89543 71 9 70.1046 9 69C9 67.8954 9.89543 67 11 67C12.1046 67 13 67.8954 13 69Z" fill="#074566"/>
<path d="M13 69C13 70.1046 12.1046 71 11 71C9.89543 71 9 70.1046 9 69C9 67.8954 9.89543 67 11 67C12.1046 67 13 67.8954 13 69Z" fill="#074566"/>
<path d="M13 72C13 73.1046 12.1046 74 11 74C9.89543 74 9 73.1046 9 72C9 70.8954 9.89543 70 11 70C12.1046 70 13 70.8954 13 72Z" fill="#074566"/>
<path d="M13 72C13 73.1046 12.1046 74 11 74C9.89543 74 9 73.1046 9 72C9 70.8954 9.89543 70 11 70C12.1046 70 13 70.8954 13 72Z" fill="#074566"/>
<path d="M13 72C13 73.1046 12.1046 74 11 74C9.89543 74 9 73.1046 9 72C9 70.8954 9.89543 70 11 70C12.1046 70 13 70.8954 13 72Z" fill="#074566"/>
<path d="M6.45923 87.5C6.45923 81 13.8464 80.7098 16.9695 76" stroke="#074566" stroke-width="1.15785" stroke-linecap="round" stroke-linejoin="round"/>
<path d="M26.9541 87.5C26.9541 81.2826 20.0924 80.505 16.9694 76" stroke="#074566" stroke-width="1.15785" stroke-linecap="round" stroke-linejoin="round"/>
<path d="M53.7551 50V56.5713V60.7435V75" stroke="#074566" stroke-width="1.15785" stroke-linecap="round" stroke-linejoin="round"/>
<path d="M56.1571 52.3221H65.7903C66.0732 52.3221 66.3474 52.2288 66.566 52.0581C66.7847 51.8874 66.9345 51.6499 66.9898 51.3859C67.2813 50.0183 67.7235 47.4431 67.3996 45.6476C66.5277 40.8017 63.5583 35.3597 63.4325 30.7153C63.3291 26.8732 66.2723 22.7751 67.6077 19.9095C68.9429 17.0439 71.0479 11.5604 70.1137 10.5341C68.6825 8.96511 63.4325 8.30971 61.0945 6.56171C59.5475 5.40621 59.0244 3.34531 58.8525 2.08311C58.8085 1.78201 58.6512 1.50631 58.4098 1.30711C58.1683 1.10791 57.8592 0.99881 57.5396 1.00001H50.8136C50.494 0.99881 50.1849 1.10791 49.9435 1.30711C49.7021 1.50631 49.5447 1.78201 49.5008 2.08311C49.3239 3.34531 48.7995 5.40141 47.2587 6.56171C44.9058 8.30611 39.6234 9.02081 38.2246 10.5294C37.2817 11.5486 39.3942 17.0475 40.7307 19.9048C42.0672 22.7621 45.0092 26.8684 44.9059 30.7106C44.7813 35.3585 41.8156 40.8005 40.9387 45.6429C40.6136 47.4383 41.0633 50.0136 41.3473 51.3812C41.4031 51.6451 41.5531 51.8826 41.772 52.0532C41.9908 52.2239 42.265 52.3172 42.548 52.3174H56.1571V52.3221Z" fill="white" stroke="#074566" stroke-width="1.15785" stroke-linecap="round" stroke-linejoin="round"/>
<path d="M48 57C48 58.1046 47.1046 59 46 59C44.8954 59 44 58.1046 44 57C44 55.8954 44.8954 55 46 55C47.1046 55 48 55.8954 48 57Z" fill="#074566"/>
<path d="M48 57C48 58.1046 47.1046 59 46 59C44.8954 59 44 58.1046 44 57C44 55.8954 44.8954 55 46 55C47.1046 55 48 55.8954 48 57Z" fill="#074566"/>
<path d="M48 57C48 58.1046 47.1046 59 46 59C44.8954 59 44 58.1046 44 57C44 55.8954 44.8954 55 46 55C47.1046 55 48 55.8954 48 57Z" fill="#074566"/>
<path d="M48 60C48 61.1046 47.1046 62 46 62C44.8954 62 44 61.1046 44 60C44 58.8954 44.8954 58 46 58C47.1046 58 48 58.8954 48 60Z" fill="#074566"/>
<path d="M48 60C48 61.1046 47.1046 62 46 62C44.8954 62 44 61.1046 44 60C44 58.8954 44.8954 58 46 58C47.1046 58 48 58.8954 48 60Z" fill="#074566"/>
<path d="M48 60C48 61.1046 47.1046 62 46 62C44.8954 62 44 61.1046 44 60C44 58.8954 44.8954 58 46 58C47.1046 58 48 58.8954 48 60Z" fill="#074566"/>
<path d="M43.2449 75.5C43.2449 69 50.6321 68.7098 53.7551 64" stroke="#074566" stroke-width="1.15785" stroke-linecap="round" stroke-linejoin="round"/>
<path d="M63.7397 75.5C63.7397 69.2826 56.8781 68.505 53.7551 64" stroke="#074566" stroke-width="1.15785" stroke-linecap="round" stroke-linejoin="round"/>
<path d="M39.041 89V95.5713V99.7435V114" stroke="#074566" stroke-width="1.15785" stroke-linecap="round" stroke-linejoin="round"/>
<path d="M41.443 91.3221H51.0762C51.3591 91.3221 51.6333 91.2288 51.8519 91.0581C52.0706 90.8874 52.2204 90.6499 52.2757 90.3859C52.5672 89.0183 53.0094 86.4431 52.6854 84.6476C51.8136 79.8017 48.8442 74.3597 48.7184 69.7153C48.615 65.8732 51.5582 61.7751 52.8936 58.9095C54.2288 56.0439 56.3338 50.5604 55.3996 49.5341C53.9684 47.9651 48.7184 47.3097 46.3804 45.5617C44.8334 44.4062 44.3103 42.3453 44.1383 41.0831C44.0944 40.782 43.9371 40.5063 43.6957 40.3071C43.4542 40.1079 43.1451 39.9988 42.8255 40H36.0995C35.7799 39.9988 35.4708 40.1079 35.2294 40.3071C34.9879 40.5063 34.8306 40.782 34.7867 41.0831C34.6098 42.3453 34.0854 44.4014 32.5446 45.5617C30.1917 47.3061 24.9093 48.0208 23.5105 49.5294C22.5676 50.5486 24.6801 56.0475 26.0166 58.9048C27.3531 61.7621 30.2951 65.8684 30.1917 69.7106C30.0672 74.3585 27.1015 79.8005 26.2246 84.6429C25.8995 86.4383 26.3492 89.0136 26.6332 90.3812C26.6889 90.6451 26.839 90.8826 27.0579 91.0532C27.2767 91.2239 27.5509 91.3172 27.8339 91.3174H41.443V91.3221Z" fill="white" stroke="#074566" stroke-width="1.15785" stroke-linecap="round" stroke-linejoin="round"/>
<path d="M34.0002 96C34.0002 97.1046 33.1048 98 32.0002 98C30.8957 98 30.0002 97.1046 30.0002 96C30.0002 94.8954 30.8957 94 32.0002 94C33.1048 94 34.0002 94.8954 34.0002 96Z" fill="#074566"/>
<path d="M34.0002 96C34.0002 97.1046 33.1048 98 32.0002 98C30.8957 98 30.0002 97.1046 30.0002 96C30.0002 94.8954 30.8957 94 32.0002 94C33.1048 94 34.0002 94.8954 34.0002 96Z" fill="#074566"/>
<path d="M34.0002 96C34.0002 97.1046 33.1048 98 32.0002 98C30.8957 98 30.0002 97.1046 30.0002 96C30.0002 94.8954 30.8957 94 32.0002 94C33.1048 94 34.0002 94.8954 34.0002 96Z" fill="#074566"/>
<path d="M34.0002 99C34.0002 100.105 33.1048 101 32.0002 101C30.8957 101 30.0002 100.105 30.0002 99C30.0002 97.8954 30.8957 97 32.0002 97C33.1048 97 34.0002 97.8954 34.0002 99Z" fill="#074566"/>
<path d="M34.0002 99C34.0002 100.105 33.1048 101 32.0002 101C30.8957 101 30.0002 100.105 30.0002 99C30.0002 97.8954 30.8957 97 32.0002 97C33.1048 97 34.0002 97.8954 34.0002 99Z" fill="#074566"/>
<path d="M34.0002 99C34.0002 100.105 33.1048 101 32.0002 101C30.8957 101 30.0002 100.105 30.0002 99C30.0002 97.8954 30.8957 97 32.0002 97C33.1048 97 34.0002 97.8954 34.0002 99Z" fill="#074566"/>
<path d="M28.5308 114.5C28.5308 108 35.918 107.71 39.041 103" stroke="#074566" stroke-width="1.15785" stroke-linecap="round" stroke-linejoin="round"/>
<path d="M49.0256 114.5C49.0256 108.283 42.164 107.505 39.0409 103" stroke="#074566" stroke-width="1.15785" stroke-linecap="round" stroke-linejoin="round"/>
<path d="M80.0308 78V84.5713V88.7435V103" stroke="#074566" stroke-width="1.15785" stroke-linecap="round" stroke-linejoin="round"/>
<path d="M82.4327 80.3221H92.066C92.3488 80.3221 92.623 80.2288 92.8416 80.0581C93.0603 79.8874 93.2101 79.6499 93.2654 79.3859C93.557 78.0183 93.9991 75.4431 93.6752 73.6476C92.8034 68.8017 89.8339 63.3597 89.7081 58.7153C89.6047 54.8732 92.548 50.7751 93.8833 47.9095C95.2185 45.0439 97.3235 39.5604 96.3894 38.5341C94.9582 36.9651 89.7081 36.3097 87.3701 34.5617C85.8231 33.4062 85.3 31.3453 85.1281 30.0831C85.0842 29.782 84.9268 29.5063 84.6854 29.3071C84.444 29.1079 84.1349 28.9988 83.8153 29H77.0893C76.7696 28.9988 76.4605 29.1079 76.2191 29.3071C75.9777 29.5063 75.8204 29.782 75.7764 30.0831C75.5995 31.3453 75.0752 33.4014 73.5344 34.5617C71.1815 36.3061 65.899 37.0208 64.5002 38.5294C63.5574 39.5486 65.6698 45.0475 67.0063 47.9048C68.3428 50.7621 71.2849 54.8684 71.1815 58.7106C71.0569 63.3585 68.0912 68.8005 67.2143 73.6429C66.8893 75.4383 67.3389 78.0136 67.6229 79.3812C67.6787 79.6451 67.8287 79.8826 68.0476 80.0532C68.2665 80.2239 68.5406 80.3172 68.8236 80.3174H82.4327V80.3221Z" fill="white" stroke="#074566" stroke-width="1.15785" stroke-linecap="round" stroke-linejoin="round"/>
<path d="M73 85C73 86.1046 72.1046 87 71 87C69.8954 87 69 86.1046 69 85C69 83.8954 69.8954 83 71 83C72.1046 83 73 83.8954 73 85Z" fill="#074566"/>
<path d="M73 85C73 86.1046 72.1046 87 71 87C69.8954 87 69 86.1046 69 85C69 83.8954 69.8954 83 71 83C72.1046 83 73 83.8954 73 85Z" fill="#074566"/>
<path d="M73 85C73 86.1046 72.1046 87 71 87C69.8954 87 69 86.1046 69 85C69 83.8954 69.8954 83 71 83C72.1046 83 73 83.8954 73 85Z" fill="#074566"/>
<path d="M73 88C73 89.1046 72.1046 90 71 90C69.8954 90 69 89.1046 69 88C69 86.8954 69.8954 86 71 86C72.1046 86 73 86.8954 73 88Z" fill="#074566"/>
<path d="M73 88C73 89.1046 72.1046 90 71 90C69.8954 90 69 89.1046 69 88C69 86.8954 69.8954 86 71 86C72.1046 86 73 86.8954 73 88Z" fill="#074566"/>
<path d="M73 88C73 89.1046 72.1046 90 71 90C69.8954 90 69 89.1046 69 88C69 86.8954 69.8954 86 71 86C72.1046 86 73 86.8954 73 88Z" fill="#074566"/>
<path d="M69.5205 103.5C69.5205 97 76.9077 96.7098 80.0307 92" stroke="#074566" stroke-width="1.15785" stroke-linecap="round" stroke-linejoin="round"/>
<path d="M90.0154 103.5C90.0154 97.2826 83.1537 96.505 80.0307 92" stroke="#074566" stroke-width="1.15785" stroke-linecap="round" stroke-linejoin="round"/>
</svg>
