<svg width="90" height="86" viewBox="0 0 90 86" fill="none" xmlns="http://www.w3.org/2000/svg">
<path d="M10.6606 68.1727V66.6909" stroke="#074566"/>
<path d="M44.3499 1H42.5039V2.97567H44.3499V1Z" stroke="#074566"/>
<path d="M6.50732 37.5499L5.58433 29.1533C5.05183 25.4822 5.60681 24.2619 9.2763 24.708L42.0424 21.2506M42.0424 21.2506V18.781H38.3504L41.1194 14.8297L47.1189 13.8419V14.8297L49.4263 17.2993H45.7344V20.2628L42.0424 21.2506ZM10.6607 68.1727C4.91419 63.96 1.10151 62.4401 0.50779 50.8856C0.32854 44.2608 3.2425 41.7318 9.2763 37.5499L40.1964 23.7202C49.3427 21.1523 53.2061 18.8261 58.1948 13.3479C59.916 10.0346 60.4127 8.3551 55.8873 7.42094L41.1194 8.40877L38.8119 5.93919L48.9648 3.4696L48.0418 6.4331H58.1948C59.6494 6.83293 60.2922 7.40882 60.9637 9.3966C61.0039 11.0926 60.7771 11.9489 60.0407 13.3479C57.7957 16.6407 56.0379 18.3829 51.7338 21.2506L32.351 29.1533C20.7643 33.8746 14.3901 36.6149 5.58433 43.4769C1.13979 48.7321 2.0995 52.171 3.73824 58.2943C4.35413 61.8808 6.65743 63.6033 10.6607 66.6909M47.1189 11.8662L41.1194 13.3479V10.8784L47.1189 9.3966V11.8662ZM55.8873 21.2506L27.2745 33.5985C18.746 37.089 14.5707 39.2779 7.89171 43.4769V48.9099C7.93043 51.3989 8.45762 52.0941 9.73769 52.8613C12.2528 53.2362 13.5303 52.915 15.7371 51.3795C18.3847 49.4383 18.8221 47.9218 18.9676 44.9586C18.3786 47.1398 17.8051 48.1666 16.6601 49.8978C14.3211 51.2114 13.1773 51.7052 14.3526 47.9221L15.2756 43.4769C16.1774 40.7879 16.9479 39.9407 18.9676 40.0194L34.6585 39.0316C41.7154 40.4647 43.6607 42.3445 42.9654 47.9221C42.9053 51.9849 42.6611 53.8487 42.0424 56.8126L39.2734 63.7274C37.2726 67.5945 36.894 69.4951 36.9659 72.6179C37.5231 74.6724 38.0546 75.3761 39.2734 76.0753L60.9637 81.5084C64.028 82.5093 65.7448 82.3238 68.8091 81.5084L78.0391 78.051C79.3703 77.4936 79.5183 77.0192 79.4235 76.0753L78.0391 64.7153L78.5006 75.0875C74.1963 78.0385 71.1251 79.1361 65.1172 80.5206V59.7761C66.669 59.5963 67.4442 59.4842 68.8091 59.2822C63.4065 57.8674 60.5504 56.5356 56.3488 51.3795C54.7166 48.8533 54.1316 47.4483 53.5798 44.9586C52.8809 41.1981 52.6655 39.551 52.6568 37.5499L53.5798 31.1289L55.8873 22.2384V21.2506ZM10.6607 54.343H11.5837V66.6909L10.6607 54.343ZM67.4247 14.8297C62.2714 16.9645 60.4156 19.3161 57.7332 24.2141C55.116 31.8109 55.828 35.6259 56.8103 42.489C59.0142 50.3788 62.8097 52.8613 67.4247 54.343C65.3418 52.6636 64.4082 51.4983 63.2712 48.9099C66.0366 51.9816 67.829 53.2168 71.5781 54.343C75.6214 54.0889 77.343 53.0654 79.885 50.3917C82.2765 47.1877 82.993 45.4688 83.577 42.489C84.2977 38.8137 84.4946 36.8644 84.5 33.5985C84.3688 30.1037 84.1767 28.4715 83.577 26.1898C82.5871 23.3752 82.0234 21.8455 80.808 20.2628C79.3441 18.3262 78.5331 17.4001 77.1161 16.3114C75.6391 15.3261 73.4241 15.3236 73.4241 15.3236C73.4241 15.3236 71.0764 15.4101 68.8091 16.3114C67.5476 17.083 66.8403 17.5156 65.5787 18.2871L63.2712 20.2628C64.1277 18.1377 64.8641 16.9474 67.4247 14.8297ZM70.1936 18.781V24.708C68.664 25.1464 68.117 25.7552 67.4247 27.1776C66.3433 25.6345 65.737 24.7694 64.6557 23.2263C65.85 20.8456 67.0403 19.8618 70.1936 18.781ZM62.8097 27.6715L65.5787 30.1411C65.1577 31.6842 65.2671 32.5493 65.5787 34.0924H61.8867C61.2285 31.4821 61.2862 30.0619 62.8097 27.6715ZM61.8867 37.5499H65.5787C65.4337 38.6121 65.4906 39.1662 66.0402 40.0194L63.2712 43.4769C61.9879 41.2705 61.6298 39.9806 61.8867 37.5499ZM65.1172 46.4403L67.8862 43.4769C68.4891 44.5044 69.001 44.8332 70.1936 44.9586V50.3917C67.5939 49.6526 66.3727 48.9299 65.1172 46.4403ZM73.4241 45.4525C74.6846 45.0077 75.2733 44.5438 76.1931 43.4769L78.5006 46.9343C77.008 49.271 75.8283 49.8908 73.4241 50.3917V45.4525ZM78.0391 41.0073C78.8539 39.5145 79.1048 38.6546 78.9621 37.0559H82.1925C82.4716 39.7043 82.0749 41.0943 80.808 43.4769L78.0391 41.0073ZM78.9621 33.5985C79.0513 31.8485 78.9291 30.8727 78.0391 29.1533L80.808 27.1776C82.4012 29.4844 82.621 30.7827 82.1925 33.1046L78.9621 33.5985ZM76.1931 26.1898L78.5006 22.7324C77.1772 20.3788 76.2405 19.4674 73.8856 19.2749L73.4241 24.2141C74.7715 24.2116 75.3581 24.6955 76.1931 26.1898ZM76.1931 31.1289C75.6363 29.6184 75.3193 28.773 73.4241 27.6715C72.7553 27.5427 72.4457 27.4341 71.1166 27.6715C69.1491 28.4131 68.4049 29.1374 67.8862 31.1289C67.7382 33.7151 67.7514 35.114 67.8862 37.5499C67.8754 39.4459 68.4193 40.3885 69.7321 41.9951C71.1735 42.2581 71.9825 42.2989 73.4241 41.9951C74.9298 41.4298 75.6225 40.9023 76.1931 39.0316C76.5274 36.201 76.7232 34.6202 76.1931 31.1289ZM69.7321 33.5985C69.964 32.1366 70.267 31.5955 71.1166 31.1289C71.5944 30.9501 71.8782 30.8936 72.5011 31.1289C73.5771 31.6003 73.765 32.0974 73.8856 33.1046C74.0079 34.4121 73.9899 35.0599 73.8856 36.0681C73.8458 36.9296 73.5983 37.3498 72.9626 38.0438C72.1759 38.1944 71.762 38.2168 71.1166 38.0438C70.1538 37.7238 69.8366 37.3017 69.7321 36.0681V33.5985Z" stroke="#074566"/>
</svg>
