<svg width="102" height="93" viewBox="0 0 102 93" fill="none" xmlns="http://www.w3.org/2000/svg">
<path d="M21.536 52.8546C23.4794 54.9987 25.8192 57.0994 28.527 59.3873L71.7838 78.8497C56.5164 68.9665 51.5161 60.3934 52.9955 36.2428L62.6081 50.9711L70.036 41.4122M21.536 52.8546C15.4225 46.1092 13.2332 38.9334 15.8559 24.1445L9.73874 30.4566L1 19.4104L17.6036 5.7341L27.6532 8.36416C33.016 19.0455 37.2671 17.52 45.1306 13.0983L56.0541 15.7283L57.6562 17.3064M21.536 52.8546V63.0694L82.7072 92M82.7072 92C82.2388 85.209 81.726 81.3985 84.018 74.6416M82.7072 92L101.495 77.2717V55.7052M101.495 55.7052C94.1432 59.0922 90.4594 61.2794 87.0766 67.2775M101.495 55.7052L91.8829 51.3379M70.036 41.4122L75.2793 34.6647L57.6562 17.3064M70.036 41.4122L91.8829 51.3379M91.8829 51.3379C99.6232 39.7942 101.609 31.0818 101.495 12.0462L59.9865 1C61.6065 8.34272 60.9956 11.8742 57.6562 17.3064" stroke="#074566"/>
</svg>
