<svg width="32" height="33" viewBox="0 0 32 33" fill="none" xmlns="http://www.w3.org/2000/svg">
<path d="M24 2.60059H8C4.68629 2.60059 2 5.28688 2 8.60059V24.6006C2 27.9143 4.68629 30.6006 8 30.6006H24C27.3137 30.6006 30 27.9143 30 24.6006V8.60059C30 5.28688 27.3137 2.60059 24 2.60059Z" fill="url(#paint0_radial_76_353)"/>
<path d="M24 2.60059H8C4.68629 2.60059 2 5.28688 2 8.60059V24.6006C2 27.9143 4.68629 30.6006 8 30.6006H24C27.3137 30.6006 30 27.9143 30 24.6006V8.60059C30 5.28688 27.3137 2.60059 24 2.60059Z" fill="url(#paint1_radial_76_353)"/>
<path d="M24 2.60059H8C4.68629 2.60059 2 5.28688 2 8.60059V24.6006C2 27.9143 4.68629 30.6006 8 30.6006H24C27.3137 30.6006 30 27.9143 30 24.6006V8.60059C30 5.28688 27.3137 2.60059 24 2.60059Z" fill="url(#paint2_radial_76_353)"/>
<path d="M23 11.1006C23 11.929 22.3284 12.6006 21.5 12.6006C20.6716 12.6006 20 11.929 20 11.1006C20 10.2722 20.6716 9.60059 21.5 9.60059C22.3284 9.60059 23 10.2722 23 11.1006Z" fill="white"/>
<path fill-rule="evenodd" clip-rule="evenodd" d="M16 21.6006C18.7614 21.6006 21 19.362 21 16.6006C21 13.8392 18.7614 11.6006 16 11.6006C13.2386 11.6006 11 13.8392 11 16.6006C11 19.362 13.2386 21.6006 16 21.6006ZM16 19.6006C17.6569 19.6006 19 18.2574 19 16.6006C19 14.9437 17.6569 13.6006 16 13.6006C14.3431 13.6006 13 14.9437 13 16.6006C13 18.2574 14.3431 19.6006 16 19.6006Z" fill="white"/>
<path fill-rule="evenodd" clip-rule="evenodd" d="M6 16.2006C6 12.8403 6 11.1601 6.65396 9.87665C7.2292 8.74767 8.14708 7.82979 9.27606 7.25455C10.5595 6.60059 12.2397 6.60059 15.6 6.60059H16.4C19.7603 6.60059 21.4405 6.60059 22.7239 7.25455C23.8529 7.82979 24.7708 8.74767 25.346 9.87665C26 11.1601 26 12.8403 26 16.2006V17.0006C26 20.3609 26 22.0411 25.346 23.3245C24.7708 24.4535 23.8529 25.3714 22.7239 25.9466C21.4405 26.6006 19.7603 26.6006 16.4 26.6006H15.6C12.2397 26.6006 10.5595 26.6006 9.27606 25.9466C8.14708 25.3714 7.2292 24.4535 6.65396 23.3245C6 22.0411 6 20.3609 6 17.0006V16.2006ZM15.6 8.60059H16.4C18.1132 8.60059 19.2777 8.60214 20.1779 8.67569C21.0548 8.74733 21.5032 8.87718 21.816 9.03656C22.5686 9.42006 23.1805 10.032 23.564 10.7846C23.7234 11.0974 23.8533 11.5458 23.9249 12.4227C23.9984 13.3228 24 14.4874 24 16.2006V17.0006C24 18.7137 23.9984 19.8783 23.9249 20.7785C23.8533 21.6553 23.7234 22.1038 23.564 22.4166C23.1805 23.1692 22.5686 23.7811 21.816 24.1646C21.5032 24.324 21.0548 24.4538 20.1779 24.5255C19.2777 24.599 18.1132 24.6006 16.4 24.6006H15.6C13.8868 24.6006 12.7223 24.599 11.8221 24.5255C10.9452 24.4538 10.4968 24.324 10.184 24.1646C9.43139 23.7811 8.81947 23.1692 8.43597 22.4166C8.27659 22.1038 8.14674 21.6553 8.0751 20.7785C8.00156 19.8783 8 18.7137 8 17.0006V16.2006C8 14.4874 8.00156 13.3228 8.0751 12.4227C8.14674 11.5458 8.27659 11.0974 8.43597 10.7846C8.81947 10.032 9.43139 9.42006 10.184 9.03656C10.4968 8.87718 10.9452 8.74733 11.8221 8.67569C12.7223 8.60214 13.8868 8.60059 15.6 8.60059Z" fill="white"/>
<defs>
<radialGradient id="paint0_radial_76_353" cx="0" cy="0" r="1" gradientUnits="userSpaceOnUse" gradientTransform="translate(12 23.6006) rotate(-55.3758) scale(25.5196)">
<stop stop-color="#B13589"/>
<stop offset="0.79309" stop-color="#C62F94"/>
<stop offset="1" stop-color="#8A3AC8"/>
</radialGradient>
<radialGradient id="paint1_radial_76_353" cx="0" cy="0" r="1" gradientUnits="userSpaceOnUse" gradientTransform="translate(11 31.6006) rotate(-65.1363) scale(22.5942)">
<stop stop-color="#E0E8B7"/>
<stop offset="0.444662" stop-color="#FB8A2E"/>
<stop offset="0.71474" stop-color="#E2425C"/>
<stop offset="1" stop-color="#E2425C" stop-opacity="0"/>
</radialGradient>
<radialGradient id="paint2_radial_76_353" cx="0" cy="0" r="1" gradientUnits="userSpaceOnUse" gradientTransform="translate(0.5 3.60059) rotate(-8.1301) scale(38.8909 8.31836)">
<stop offset="0.156701" stop-color="#406ADC"/>
<stop offset="0.467799" stop-color="#6A45BE"/>
<stop offset="1" stop-color="#6A45BE" stop-opacity="0"/>
</radialGradient>
</defs>
</svg>
