<svg width="100" height="101" viewBox="0 0 100 101" fill="none" xmlns="http://www.w3.org/2000/svg">
<g clip-path="url(#clip0_76_94)">
<path d="M50.5416 36.2002H13.0447C12.2357 36.2002 11.5801 36.8561 11.5801 37.6648C11.5801 38.4738 12.2357 39.1295 13.0447 39.1295H50.5418C51.3508 39.1295 52.0064 38.4736 52.0064 37.6648C52.0064 36.8561 51.3508 36.2002 50.5416 36.2002Z" fill="#074566"/>
<path d="M50.5416 46.4927H13.0447C12.2357 46.4927 11.5801 47.1485 11.5801 47.9573C11.5801 48.7661 12.2357 49.422 13.0447 49.422H50.5418C51.3508 49.422 52.0064 48.7661 52.0064 47.9573C52.0064 47.1485 51.3508 46.4927 50.5416 46.4927Z" fill="#074566"/>
<path d="M52.0064 68.5418C52.0064 67.7328 51.3508 67.0771 50.5418 67.0771H13.0447C12.2357 67.0771 11.5801 67.733 11.5801 68.5418C11.5801 69.3506 12.2357 70.0064 13.0447 70.0064H50.5418C51.3508 70.0064 52.0064 69.3508 52.0064 68.5418Z" fill="#074566"/>
<path d="M13.0447 82.1602C12.2357 82.1602 11.5801 82.816 11.5801 83.6248C11.5801 84.4336 12.2357 85.0895 13.0447 85.0895H31.8412C32.6502 85.0895 33.3059 84.4336 33.3059 83.6248C33.3059 82.816 32.6502 82.1602 31.8412 82.1602H13.0447Z" fill="#074566"/>
<path d="M78.3726 90.0656C77.5636 90.0656 76.908 90.7215 76.908 91.5303V93.5027C76.908 95.8834 74.9711 97.8205 72.59 97.8205H7.79273C5.41206 97.8205 3.47495 95.8836 3.47495 93.5027V23.0992C3.47495 22.7822 3.51206 22.4713 3.57827 22.1688H16.9148C19.6992 22.1688 21.9644 19.9035 21.9644 17.1191V3.78281C22.2669 3.7166 22.5777 3.67949 22.8947 3.67949H72.5898C74.9707 3.67949 76.9078 5.61641 76.9078 7.99727V27.4977C76.9078 28.3066 77.5634 28.9623 78.3724 28.9623C79.1814 28.9623 79.8371 28.3064 79.8371 27.4977V7.99707C79.8373 4.00117 76.5861 0.75 72.59 0.75H22.8949C20.9591 0.75 19.139 1.50391 17.7703 2.87266L2.66812 17.9748C1.29937 19.3436 0.545654 21.1635 0.545654 23.0994V93.5029C0.545654 97.499 3.79663 100.75 7.79273 100.75H72.59C76.5861 100.75 79.8373 97.4988 79.8373 93.5029V91.5305C79.8373 90.7215 79.1816 90.0656 78.3726 90.0656ZM19.0351 5.75078V17.1191C19.0351 18.2883 18.0839 19.2395 16.9148 19.2395H5.54644L19.0351 5.75078Z" fill="#074566"/>
<path d="M98.4339 53.0937C99.462 51.5845 99.728 49.7229 99.1638 47.9862C98.5995 46.2495 97.2899 44.8999 95.5712 44.2835C94.431 43.8745 93.6702 42.8276 93.6339 41.6167C93.5786 39.7915 92.6995 38.129 91.222 37.0556C89.7448 35.9823 87.8917 35.6603 86.1394 36.1716C84.9757 36.511 83.7458 36.111 83.0044 35.153C81.887 33.7087 80.1987 32.8804 78.3726 32.8804C76.5466 32.8804 74.8581 33.7087 73.7405 35.153C72.9991 36.1112 71.7685 36.5106 70.6058 36.1716C68.8532 35.6599 67.0003 35.9823 65.5228 37.0556C64.0454 38.129 63.1667 39.7913 63.1112 41.6165C63.0747 42.8274 62.3142 43.8741 61.1737 44.2833C59.455 44.8997 58.1454 46.2495 57.5814 47.986C57.0171 49.7228 57.2831 51.5845 58.3112 53.0935C58.9933 54.0948 58.9933 55.3886 58.3112 56.3897C57.2831 57.8989 57.0171 59.7604 57.5814 61.4972C58.1454 63.2339 59.455 64.5835 61.1737 65.2001C62.3142 65.6093 63.0749 66.656 63.1112 67.8669C63.1622 69.5458 63.9316 71.1233 65.2226 72.1946C66.0743 72.9017 67.0976 73.344 68.1685 73.4919V86.8274C68.1685 87.9526 68.7788 88.9927 69.761 89.5413C70.7421 90.0896 71.9481 90.0651 72.9069 89.4747L78.279 86.1677C78.3665 86.1136 78.4187 86.138 78.4669 86.1677L83.8386 89.4747C84.797 90.0646 86.0026 90.0899 86.9847 89.5411C87.9671 88.9923 88.5772 87.9522 88.5772 86.8272V73.4915C89.6478 73.3438 90.671 72.9015 91.5228 72.1946C92.814 71.1233 93.5835 69.546 93.6345 67.8667C93.6708 66.6558 94.4315 65.6089 95.5718 65.1999C97.2907 64.5835 98.6003 63.2337 99.1644 61.497C99.7286 59.7603 99.4626 57.8987 98.4345 56.3895C97.7517 55.3888 97.7517 54.095 98.4339 53.0937ZM85.3739 86.9802L80.0021 83.6731C79.0034 83.0585 77.7425 83.0575 76.7429 83.6731L71.371 86.98C71.2487 87.0544 71.0978 86.9687 71.0978 86.8272V73.2138C72.1048 73.0972 73.1032 73.5069 73.7405 74.3306C74.8583 75.7747 76.5466 76.603 78.3728 76.603C80.1987 76.603 81.887 75.7747 83.0044 74.3306C83.6419 73.5067 84.6405 73.0972 85.6474 73.2138V86.8272C85.6474 86.9696 85.4944 87.0546 85.3739 86.9802ZM96.013 58.0395C96.5271 58.7938 96.6599 59.7241 96.3778 60.5921C96.0958 61.4601 95.4413 62.1347 94.5821 62.4429C92.3005 63.2612 90.779 65.3556 90.7058 67.7784C90.6798 68.6302 90.3054 69.3979 89.6517 69.9405C88.9167 70.5505 87.9214 70.7806 86.9601 70.5001C84.6333 69.8212 82.171 70.6212 80.6874 72.538C80.129 73.2597 79.2851 73.6737 78.3724 73.6737C77.4599 73.6737 76.6159 73.2599 76.0571 72.538C74.9245 71.0739 73.2212 70.2614 71.4433 70.2614C70.8929 70.2614 70.3351 70.3394 69.7851 70.4999C68.8144 70.7827 67.822 70.5456 67.0929 69.9403C66.4392 69.3978 66.0648 68.63 66.0392 67.7784C65.9657 65.3556 64.4442 63.2612 62.1624 62.4427C61.3034 62.1345 60.6491 61.4601 60.3669 60.5921C60.0849 59.7241 60.2177 58.7937 60.7317 58.0394C62.0964 56.036 62.0964 53.4476 60.7317 51.4442C60.2177 50.6899 60.0849 49.7595 60.3669 48.8913C60.6489 48.0233 61.3034 47.3487 62.1624 47.0407C64.4442 46.2222 65.9657 44.1278 66.0392 41.705C66.0667 40.7927 66.5058 39.9618 67.2442 39.4255C67.9823 38.889 68.9081 38.728 69.7849 38.9835C72.111 39.6626 74.5739 38.8624 76.0571 36.9456C76.6157 36.2237 77.4595 35.8097 78.3724 35.8097C79.2851 35.8097 80.1288 36.2235 80.6874 36.9454C82.1708 38.8624 84.6325 39.6624 86.9599 38.9835C87.836 38.7276 88.7618 38.8888 89.5003 39.4253C90.2388 39.9616 90.6782 40.7927 90.7056 41.7048C90.779 44.1276 92.3005 46.2222 94.5821 47.0405C95.4413 47.3485 96.0956 48.0231 96.3778 48.8911C96.6599 49.7591 96.5271 50.6897 96.013 51.4438C94.648 53.4474 94.648 56.0362 96.013 58.0395Z" fill="#074566"/>
<path d="M78.3726 42.4653C71.6035 42.4653 66.0964 47.9724 66.0964 54.7415C66.0964 61.5106 71.6035 67.0177 78.3726 67.0177C85.1416 67.0177 90.6486 61.5106 90.6486 54.7415C90.6486 47.9724 85.1416 42.4653 78.3726 42.4653ZM78.3726 64.0884C73.2187 64.0884 69.0257 59.8954 69.0257 54.7417C69.0257 49.588 73.2187 45.3948 78.3726 45.3948C83.5265 45.3948 87.7193 49.5878 87.7193 54.7417C87.7193 59.8956 83.5263 64.0884 78.3726 64.0884Z" fill="#074566"/>
</g>
<defs>
<clipPath id="clip0_76_94">
<rect width="100" height="100" fill="white" transform="translate(0 0.75)"/>
</clipPath>
</defs>
</svg>
