<svg width="100" height="101" viewBox="0 0 100 101" fill="none" xmlns="http://www.w3.org/2000/svg">
<g clip-path="url(#clip0_76_78)">
<path d="M91.053 80.9103L87.0163 79.5088C89.2761 77.7189 90.7295 74.954 90.7295 71.8542V68.8955C90.7295 63.5122 86.3495 59.1322 80.9662 59.1322C75.5829 59.1322 71.2029 63.5122 71.2029 68.8955V71.8542C71.2029 74.954 72.657 77.7189 74.9168 79.5088L70.8794 80.9103C68.2899 81.8098 66.1133 83.4593 64.5546 85.5627H53.6491V81.259C53.6491 75.5941 50.0534 70.5397 44.7021 68.6819L40.6647 67.2804C42.9245 65.4905 44.3787 62.7256 44.3787 59.6258V56.6671C44.3787 51.2831 39.9986 46.9038 34.6153 46.9038C29.232 46.9038 24.852 51.2838 24.852 56.6671V59.6258C24.852 62.7256 26.3062 65.4905 28.5652 67.2804L24.5285 68.6819C19.1772 70.5397 15.5815 75.5941 15.5815 81.259V85.5627H1.47934C0.662231 85.5627 0 86.2249 0 87.0421V99.2704C0 100.088 0.662231 100.75 1.47934 100.75H63.018C63.0844 100.75 63.15 100.744 63.2149 100.735C63.2797 100.744 63.3453 100.75 63.4125 100.75H98.5207C99.3378 100.75 100 100.088 100 99.2704V93.4874C100 87.8233 96.405 82.7688 91.053 80.9103ZM74.1615 68.8955C74.1615 65.1434 77.2141 62.0909 80.9662 62.0909C84.7183 62.0909 87.7708 65.1434 87.7708 68.8955V71.8542C87.7708 75.6064 84.7183 78.6589 80.9662 78.6589C77.2141 78.6589 74.1615 75.6064 74.1615 71.8542V68.8955ZM27.8107 56.6671C27.8107 52.915 30.8632 49.8625 34.6153 49.8625C38.3675 49.8625 41.42 52.915 41.42 56.6671V59.6258C41.42 63.378 38.3675 66.4305 34.6153 66.4305C30.8632 66.4305 27.8107 63.378 27.8107 59.6258V56.6671ZM37.719 69.3892L39.1563 69.8881L34.6153 77.767L30.0743 69.8881L31.5117 69.3892H37.719ZM18.5402 81.259C18.5402 76.853 21.3371 72.9216 25.499 71.4766L27.2293 70.8761L33.3336 81.4688C33.5976 81.9273 34.0866 82.2096 34.6153 82.2096C35.144 82.2096 35.6331 81.9273 35.8971 81.4688L42.0013 70.8761L43.7317 71.4766C47.8935 72.9216 50.6897 76.853 50.6897 81.259V85.5627H18.5402V81.259ZM2.95868 88.5214H62.8967C62.2726 90.0694 61.9331 91.7494 61.9331 93.4874V97.7911H2.95868V88.5214ZM97.0413 97.7911H64.8918V93.4874C64.8918 89.0814 67.688 85.1507 71.8498 83.705L77.8625 81.6176H84.0698L90.0826 83.705C94.2451 85.1507 97.0413 89.0814 97.0413 93.4874V97.7911Z" fill="#074566"/>
<path d="M90.6311 11.4006H75.6042C74.7871 11.4006 74.1249 12.0636 74.1249 12.88C74.1249 13.6971 74.7871 14.3593 75.6042 14.3593H90.6311C94.1658 14.3593 97.0413 17.2348 97.0413 20.7703V41.2827C97.0413 44.8174 94.1658 47.6929 90.6311 47.6929H70.3156C69.4984 47.6929 68.8362 48.3551 68.8362 49.1722V55.4634L61.4998 48.1263C61.2221 47.8485 60.8459 47.6929 60.4538 47.6929H48.4222C44.8875 47.6929 42.0113 44.8174 42.0113 41.2827V20.7695C42.0113 17.2348 44.8868 14.3593 48.4222 14.3593H68.6882C69.5053 14.3593 70.1675 13.6971 70.1675 12.88C70.1675 12.0629 69.5053 11.4006 68.6882 11.4006H60.9467V10.1189C60.9467 4.95303 56.7436 0.75 51.5778 0.75H9.3689C4.20303 0.75 0 4.95303 0 10.1189V13.3896C0 14.2067 0.662231 14.869 1.47934 14.869C2.29645 14.869 2.95868 14.2067 2.95868 13.3896V10.1189C2.95868 6.5842 5.8342 3.70868 9.3689 3.70868H51.5778C55.1125 3.70868 57.988 6.5842 57.988 10.1189V11.4006H48.4222C43.2564 11.4006 39.0533 15.6037 39.0533 20.7695V37.0415H23.5703C22.7531 37.0415 22.0909 37.7037 22.0909 38.5208V44.812L14.7545 37.4749C14.4768 37.1971 14.1006 37.0415 13.7085 37.0415H9.3689C5.8342 37.0415 2.95868 34.166 2.95868 30.6313V20.2683C2.95868 19.4512 2.29645 18.7889 1.47934 18.7889C0.662231 18.7889 0 19.4512 0 20.2683V30.6313C0 35.7979 4.20303 40.0002 9.3689 40.0002H13.0951L22.5243 49.4294C22.8073 49.7124 23.1857 49.8627 23.5703 49.8619C23.761 49.8619 23.9532 49.8253 24.1364 49.7498C24.6887 49.5209 25.0496 48.9815 25.0496 48.3834V40.0002H39.0533V41.2827C39.0533 46.4485 43.2564 50.6508 48.4222 50.6508H59.8412L69.2696 60.08C69.5526 60.363 69.931 60.5133 70.3156 60.5133C70.5063 60.5133 70.6985 60.4767 70.8817 60.4004C71.434 60.1715 71.7949 59.6321 71.7949 59.034V50.6508H90.6311C95.797 50.6508 100 46.4485 100 41.2827V20.7695C100 15.6037 95.797 11.4006 90.6311 11.4006Z" fill="#074566"/>
</g>
<defs>
<clipPath id="clip0_76_78">
<rect width="100" height="100" fill="white" transform="translate(0 0.75)"/>
</clipPath>
</defs>
</svg>
