<svg width="100" height="101" viewBox="0 0 100 101" fill="none" xmlns="http://www.w3.org/2000/svg">
<path d="M92.9996 45.9382L90.41 35.5798C91.118 35.4294 91.6492 34.8013 91.6492 34.0487V32.3786C91.6492 28.7524 88.699 25.8024 85.0731 25.8024H73.2777V22.3575C73.2777 20.5731 71.8262 19.1216 70.0418 19.1216H9.91641C8.13203 19.1216 6.68047 20.5731 6.68047 22.3575V50.7501C6.68047 51.6147 7.38145 52.3159 8.24629 52.3159C9.11094 52.3159 9.81211 51.6149 9.81211 50.7501V22.3575C9.81211 22.2999 9.85879 22.2532 9.91641 22.2532H70.0416C70.0992 22.2532 70.1459 22.2999 70.1459 22.3575V50.7505C70.1459 51.6151 70.8469 52.3163 71.7117 52.3163C72.5764 52.3163 73.2775 51.6153 73.2775 50.7505V48.9755H91.748C91.7496 48.9755 91.7508 48.9759 91.7522 48.9759C91.7537 48.9759 91.7551 48.9757 91.7564 48.9757C94.0293 48.9772 95.9592 50.469 96.6221 52.5247H91.7533C90.8887 52.5247 90.1875 53.2257 90.1875 54.0905V57.4308C90.1875 60.136 92.3883 62.3368 95.0936 62.3368H96.8682V69.2261H92.774C91.4291 65.3427 87.7375 62.5454 83.4025 62.5454C79.0676 62.5454 75.3758 65.3427 74.0311 69.2261H73.2771V57.4306C73.2771 56.5659 72.5762 55.8647 71.7113 55.8647C70.8467 55.8647 70.1455 56.5657 70.1455 57.4306V69.2257H37.6596C36.3146 65.3423 32.623 62.545 28.2881 62.545C23.9531 62.545 20.2613 65.3423 18.9166 69.2257H9.91641C9.85879 69.2257 9.81211 69.179 9.81211 69.1214V65.6767H16.5971C17.4617 65.6767 18.1629 64.9757 18.1629 64.1108C18.1629 63.246 17.4619 62.545 16.5971 62.545H1.56582C0.701172 62.545 0 63.246 0 64.1108C0 64.9757 0.700977 65.6767 1.56582 65.6767H6.68066V69.1214C6.68066 70.9058 8.13223 72.3573 9.9166 72.3573H18.3744C18.374 72.3921 18.3717 72.4267 18.3717 72.4616C18.3717 77.9296 22.8203 82.378 28.2881 82.378C33.7559 82.378 38.2045 77.9296 38.2045 72.4616C38.2045 72.4265 38.2021 72.3921 38.2018 72.3573H73.4889C73.4885 72.3921 73.4861 72.4267 73.4861 72.4616C73.4861 77.9296 77.9348 82.378 83.4025 82.378C88.8703 82.378 93.3189 77.9296 93.3189 72.4616C93.3189 72.4265 93.3166 72.3921 93.3162 72.3573H98.434C99.2986 72.3573 99.9998 71.6563 99.9998 70.7915V54.0901C100 49.9667 96.9576 46.5407 92.9996 45.9382ZM73.2777 28.9339H85.0731C86.9725 28.9339 88.5178 30.4792 88.5178 32.3786V32.4829H73.2777V28.9339ZM73.2777 45.844V35.6144H87.1908L89.7482 45.844H73.2777ZM28.2881 79.247C24.5469 79.247 21.5031 76.2034 21.5031 72.462C21.5031 68.7206 24.5469 65.6771 28.2881 65.6771C32.0293 65.6771 35.073 68.7206 35.073 72.462C35.073 76.2034 32.0293 79.247 28.2881 79.247ZM83.4029 79.247C79.6617 79.247 76.618 76.2034 76.618 72.462C76.618 68.7206 79.6617 65.6771 83.4029 65.6771C87.1441 65.6771 90.1879 68.7206 90.1879 72.462C90.1879 76.2034 87.1441 79.247 83.4029 79.247ZM96.8686 59.2052H95.0939C94.1154 59.2052 93.3193 58.4091 93.3193 57.4306V55.656H96.8684V59.2052H96.8686Z" fill="#074566"/>
<path d="M28.2882 69.2261C26.5038 69.2261 25.0522 70.6776 25.0522 72.462C25.0522 74.2464 26.5038 75.698 28.2882 75.698C30.0726 75.698 31.5241 74.2464 31.5241 72.462C31.5241 70.6776 30.0726 69.2261 28.2882 69.2261Z" fill="#074566"/>
<path d="M83.4029 69.2261C81.6186 69.2261 80.167 70.6776 80.167 72.462C80.167 74.2464 81.6186 75.698 83.4029 75.698C85.1873 75.698 86.6389 74.2464 86.6389 72.462C86.6389 70.6776 85.1873 69.2261 83.4029 69.2261Z" fill="#074566"/>
<path d="M65.0313 62.5454H41.6493C40.7847 62.5454 40.0835 63.2464 40.0835 64.1112C40.0835 64.9761 40.7845 65.6771 41.6493 65.6771H65.0313C65.896 65.6771 66.5972 64.9761 66.5972 64.1112C66.5972 63.2464 65.8962 62.5454 65.0313 62.5454Z" fill="#074566"/>
<path d="M24.9479 55.8647H4.90615C4.0415 55.8647 3.34033 56.5657 3.34033 57.4306C3.34033 58.2954 4.04131 58.9964 4.90615 58.9964H24.9479C25.8126 58.9964 26.5138 58.2954 26.5138 57.4306C26.5138 56.5657 25.8126 55.8647 24.9479 55.8647Z" fill="#074566"/>
</svg>
