<svg width="100" height="101" viewBox="0 0 100 101" fill="none" xmlns="http://www.w3.org/2000/svg">
<g clip-path="url(#clip0_76_52)">
<path d="M50 9.18945C49.191 9.18945 48.5352 8.53359 48.5352 7.72461C48.5352 6.91562 49.191 6.25977 50 6.25977C50.809 6.25977 51.4648 6.91562 51.4648 7.72461C51.4648 8.53379 50.809 9.18945 50 9.18945Z" fill="#074566"/>
<path d="M83.3672 23.8125C84.1762 23.8125 84.832 23.1566 84.832 22.3477V8.28125C84.832 7.47227 84.1762 6.81641 83.3672 6.81641H58.5059C57.8807 6.81641 57.3262 6.42383 57.1262 5.84004C56.0838 2.79551 53.2201 0.75 50 0.75C46.8146 0.75 43.9049 2.82578 42.874 5.83965C42.6738 6.42402 42.1193 6.81641 41.4941 6.81641H16.6328C15.8238 6.81641 15.168 7.47227 15.168 8.28125V99.2852C15.168 100.094 15.8238 100.75 16.6328 100.75H83.3672C84.1762 100.75 84.832 100.094 84.832 99.2852V28.7324C84.832 27.9234 84.1762 27.2676 83.3672 27.2676C82.5582 27.2676 81.9023 27.9234 81.9023 28.7324V97.8203H18.0977V9.74609H33.6191C33.308 10.6234 33.309 11.9336 33.3672 12.8848H22.8652C22.0562 12.8848 21.4004 13.5406 21.4004 14.3496V93.2188C21.4004 94.0277 22.0562 94.6836 22.8652 94.6836H34.6543C35.4633 94.6836 36.1191 94.0277 36.1191 93.2188C36.1191 92.4098 35.4633 91.7539 34.6543 91.7539H24.3301V15.8145H33.3672V17.4863C33.3672 19.9096 35.3385 21.8809 37.7617 21.8809H46.8086C47.6176 21.8809 48.2734 21.225 48.2734 20.416C48.2734 19.607 47.6176 18.9512 46.8086 18.9512H42.3652V15.8145H57.6348V18.9512H53.1914C52.3824 18.9512 51.7266 19.607 51.7266 20.416C51.7266 21.225 52.3824 21.8809 53.1914 21.8809H62.2383C64.6615 21.8809 66.6328 19.9096 66.6328 17.4863V15.8145H75.6699V91.7539H41.0371C40.2281 91.7539 39.5723 92.4098 39.5723 93.2188C39.5723 94.0277 40.2281 94.6836 41.0371 94.6836H77.1348C77.9437 94.6836 78.5996 94.0277 78.5996 93.2188V14.3496C78.5996 13.5406 77.9437 12.8848 77.1348 12.8848H66.6328V11.2109C66.6328 10.6975 66.5434 10.2045 66.3809 9.74609H81.9023V22.3477C81.9023 23.1566 82.5582 23.8125 83.3672 23.8125ZM63.7031 11.2109V17.4863C63.7031 18.2941 63.0459 18.9512 62.2383 18.9512H60.5645V14.3496C60.5645 13.5406 59.9086 12.8848 59.0996 12.8848H40.9004C40.0914 12.8848 39.4355 13.5406 39.4355 14.3496V18.9512H37.7617C36.9541 18.9512 36.2969 18.2941 36.2969 17.4863V11.2109C36.2969 10.4031 36.9541 9.74609 37.7617 9.74609H41.4941C43.3711 9.74609 45.0393 8.55801 45.6457 6.78867C46.4301 4.8252 47.8816 3.78887 50 3.67969C51.9678 3.67969 53.7178 4.9291 54.3545 6.78945C54.9605 8.55801 56.6289 9.74609 58.5057 9.74609H62.2381C63.0459 9.74609 63.7031 10.4031 63.7031 11.2109Z" fill="#074566"/>
<path d="M33.7971 39.6524C34.0717 39.9272 34.4444 40.0815 34.8328 40.0815C35.2213 40.0815 35.594 39.9272 35.8686 39.6524L41.9356 33.5856C42.5076 33.0135 42.5076 32.086 41.9356 31.5141C41.3635 30.9418 40.436 30.942 39.8641 31.5141L34.833 36.5451L32.8354 34.5475C32.2635 33.9754 31.336 33.9754 30.7639 34.5475C30.1918 35.1196 30.1918 36.0469 30.7639 36.619L33.7971 39.6524Z" fill="#074566"/>
<path d="M41.9356 43.6474C41.3635 43.0751 40.436 43.0753 39.8641 43.6474L34.833 48.6784L32.8354 46.6808C32.2635 46.1085 31.336 46.1087 30.7639 46.6808C30.1918 47.2529 30.1918 48.1802 30.7639 48.7523L33.7973 51.7857C34.0719 52.0605 34.4446 52.2148 34.833 52.2148C35.2215 52.2148 35.5942 52.0605 35.8688 51.7857L41.9358 45.7189C42.5076 45.147 42.5076 44.2193 41.9356 43.6474Z" fill="#074566"/>
<path d="M41.9356 59.4291C41.3635 58.8569 40.436 58.8571 39.8641 59.4291L34.833 64.4602L32.8354 62.4625C32.2635 61.8903 31.336 61.8905 30.7639 62.4625C30.1918 63.0346 30.1918 63.9619 30.7639 64.534L33.7973 67.5674C34.0719 67.8422 34.4446 67.9965 34.833 67.9965C35.2215 67.9965 35.5942 67.8422 35.8688 67.5674L41.9358 61.5006C42.5076 60.9287 42.5076 60.001 41.9356 59.4291Z" fill="#074566"/>
<path d="M41.9356 71.4291C41.3635 70.8569 40.436 70.8571 39.8641 71.4291L34.833 76.4602L32.8354 74.4625C32.2635 73.8903 31.336 73.8905 30.7639 74.4625C30.1918 75.0346 30.1918 75.9619 30.7639 76.534L33.7973 79.5674C34.0719 79.8422 34.4446 79.9965 34.833 79.9965C35.2215 79.9965 35.5942 79.8422 35.8688 79.5674L41.9358 73.5006C42.5076 72.9287 42.5076 72.001 41.9356 71.4291Z" fill="#074566"/>
<path d="M46.9666 40.0811H71.2339C72.0429 40.0811 72.6988 39.4252 72.6988 38.6162C72.6988 37.8072 72.0429 37.1514 71.2339 37.1514H46.9666C46.1576 37.1514 45.5017 37.8072 45.5017 38.6162C45.5017 39.4252 46.1576 40.0811 46.9666 40.0811Z" fill="#074566"/>
<path d="M46.9666 52.2148H71.2339C72.0429 52.2148 72.6988 51.559 72.6988 50.75C72.6988 49.941 72.0429 49.2852 71.2339 49.2852H46.9666C46.1576 49.2852 45.5017 49.941 45.5017 50.75C45.5017 51.559 46.1576 52.2148 46.9666 52.2148Z" fill="#074566"/>
<path d="M46.9666 64.3486H71.2339C72.0429 64.3486 72.6988 63.6928 72.6988 62.8838C72.6988 62.0748 72.0429 61.4189 71.2339 61.4189H46.9666C46.1576 61.4189 45.5017 62.0748 45.5017 62.8838C45.5017 63.6928 46.1576 64.3486 46.9666 64.3486Z" fill="#074566"/>
<path d="M46.9666 76.4824H71.2339C72.0429 76.4824 72.6988 75.8266 72.6988 75.0176C72.6988 74.2086 72.0429 73.5527 71.2339 73.5527H46.9666C46.1576 73.5527 45.5017 74.2086 45.5017 75.0176C45.5017 75.8266 46.1576 76.4824 46.9666 76.4824Z" fill="#074566"/>
</g>
<defs>
<clipPath id="clip0_76_52">
<rect width="100" height="100" fill="white" transform="translate(0 0.75)"/>
</clipPath>
</defs>
</svg>
